<mxfile host="Electron" modified="2023-05-27T15:09:47.044Z" agent="Mozilla/5.0 (Macintosh; Intel Mac OS X 10_15_7) AppleWebKit/537.36 (KHTML, like Gecko) draw.io/21.2.1 Chrome/112.0.5615.87 Electron/24.1.2 Safari/537.36" etag="PL8wXbyW2J8-40G80bw-" version="21.2.1" type="device">
  <diagram name="Page-1" id="H1nZVYqxkzLZFgEqRADx">
    <mxGraphModel dx="2670" dy="5767" grid="1" gridSize="10" guides="1" tooltips="1" connect="1" arrows="1" fold="1" page="1" pageScale="1" pageWidth="850" pageHeight="1100" math="0" shadow="0">
      <root>
        <mxCell id="0" />
        <mxCell id="1" parent="0" />
        <mxCell id="AsBp8XiL8Dx4Y6rQVwFH-433" value="R, W: 115, H: 94, ORDER: 10, GC: {34, 19, 23, 15, 4, 39, 11, 16, 60, 55} " style="text;html=1;strokeColor=none;fillColor=none;align=center;verticalAlign=middle;whiteSpace=wrap;rounded=0;flipV=1;" parent="1" vertex="1">
          <mxGeometry x="50" width="1150" height="30" as="geometry" />
        </mxCell>
        <mxCell id="AsBp8XiL8Dx4Y6rQVwFH-5933" value="R, W: 115, H: 69, ORDER: 17, GC: {29, 16, 19, 13, 3, 21, 8, 14, 2, 6, 30, 12, 9, 39, 40, 4, 36} " style="text;html=1;strokeColor=none;fillColor=none;align=center;verticalAlign=middle;whiteSpace=wrap;rounded=0;flipV=1;" parent="1" vertex="1">
          <mxGeometry x="60" y="1150" width="1150" height="30" as="geometry" />
        </mxCell>
        <mxCell id="AsBp8XiL8Dx4Y6rQVwFH-15590" value="R, W: 115, H: 104, ORDER: 20, GC: {27, 23, 22, 43, 1, 21, 4, 20, 31, 15, 25, 16, 28, 9, 7, 2, 5, 46, 36, 33} " style="text;html=1;strokeColor=none;fillColor=none;align=center;verticalAlign=middle;whiteSpace=wrap;rounded=0;flipV=1;" parent="1" vertex="1">
          <mxGeometry x="50" y="2120" width="1150" height="30" as="geometry" />
        </mxCell>
        <mxCell id="AsBp8XiL8Dx4Y6rQVwFH-15947" value="R, W: 115, H: 112, ORDER: 20, GC: {55, 31, 29, 2, 11, 16, 24, 9, 15, 5, 21, 57, 25, 12, 1, 20, 13, 32, 6, 26} " style="text;html=1;strokeColor=none;fillColor=none;align=center;verticalAlign=middle;whiteSpace=wrap;rounded=0;flipV=1;" parent="1" vertex="1">
          <mxGeometry x="60" y="-1280" width="1150" height="30" as="geometry" />
        </mxCell>
        <mxCell id="Js8T8nFlmekBVsmb_q_9-1" value="" style="group;flipV=1;" vertex="1" connectable="0" parent="1">
          <mxGeometry x="50" y="2170" width="1150" height="1040" as="geometry" />
        </mxCell>
        <mxCell id="761dnnyQ54j-Cl0NHfQN-15591" value="27" style="rounded=0;whiteSpace=wrap;html=1;" parent="Js8T8nFlmekBVsmb_q_9-1" vertex="1">
          <mxGeometry y="770" width="270" height="270" as="geometry" />
        </mxCell>
        <mxCell id="761dnnyQ54j-Cl0NHfQN-15592" value="23" style="rounded=0;whiteSpace=wrap;html=1;" parent="Js8T8nFlmekBVsmb_q_9-1" vertex="1">
          <mxGeometry x="270" y="810" width="230" height="230" as="geometry" />
        </mxCell>
        <mxCell id="761dnnyQ54j-Cl0NHfQN-15593" value="22" style="rounded=0;whiteSpace=wrap;html=1;" parent="Js8T8nFlmekBVsmb_q_9-1" vertex="1">
          <mxGeometry x="500" y="820" width="220" height="220" as="geometry" />
        </mxCell>
        <mxCell id="761dnnyQ54j-Cl0NHfQN-15594" value="43" style="rounded=0;whiteSpace=wrap;html=1;" parent="Js8T8nFlmekBVsmb_q_9-1" vertex="1">
          <mxGeometry x="720" y="610" width="430" height="430" as="geometry" />
        </mxCell>
        <mxCell id="761dnnyQ54j-Cl0NHfQN-15595" value="1" style="rounded=0;whiteSpace=wrap;html=1;" parent="Js8T8nFlmekBVsmb_q_9-1" vertex="1">
          <mxGeometry x="500" y="810" width="10" height="10" as="geometry" />
        </mxCell>
        <mxCell id="761dnnyQ54j-Cl0NHfQN-15596" value="21" style="rounded=0;whiteSpace=wrap;html=1;" parent="Js8T8nFlmekBVsmb_q_9-1" vertex="1">
          <mxGeometry x="510" y="610" width="210" height="210" as="geometry" />
        </mxCell>
        <mxCell id="761dnnyQ54j-Cl0NHfQN-15597" value="4" style="rounded=0;whiteSpace=wrap;html=1;" parent="Js8T8nFlmekBVsmb_q_9-1" vertex="1">
          <mxGeometry x="270" y="770" width="40" height="40" as="geometry" />
        </mxCell>
        <mxCell id="761dnnyQ54j-Cl0NHfQN-15598" value="20" style="rounded=0;whiteSpace=wrap;html=1;" parent="Js8T8nFlmekBVsmb_q_9-1" vertex="1">
          <mxGeometry x="310" y="610" width="200" height="200" as="geometry" />
        </mxCell>
        <mxCell id="761dnnyQ54j-Cl0NHfQN-15599" value="31" style="rounded=0;whiteSpace=wrap;html=1;" parent="Js8T8nFlmekBVsmb_q_9-1" vertex="1">
          <mxGeometry y="460" width="310" height="310" as="geometry" />
        </mxCell>
        <mxCell id="761dnnyQ54j-Cl0NHfQN-15600" value="15" style="rounded=0;whiteSpace=wrap;html=1;" parent="Js8T8nFlmekBVsmb_q_9-1" vertex="1">
          <mxGeometry x="310" y="460" width="150" height="150" as="geometry" />
        </mxCell>
        <mxCell id="761dnnyQ54j-Cl0NHfQN-15601" value="25" style="rounded=0;whiteSpace=wrap;html=1;fillColor=#f5f5f5;fontColor=#333333;strokeColor=#666666;" parent="Js8T8nFlmekBVsmb_q_9-1" vertex="1">
          <mxGeometry x="460" y="360" width="250" height="250" as="geometry" />
        </mxCell>
        <mxCell id="761dnnyQ54j-Cl0NHfQN-15602" value="16" style="rounded=0;whiteSpace=wrap;html=1;fillColor=#f5f5f5;fontColor=#333333;strokeColor=#666666;" parent="Js8T8nFlmekBVsmb_q_9-1" vertex="1">
          <mxGeometry x="710" y="450" width="160" height="160" as="geometry" />
        </mxCell>
        <mxCell id="761dnnyQ54j-Cl0NHfQN-15603" value="28" style="rounded=0;whiteSpace=wrap;html=1;fillColor=#f5f5f5;fontColor=#333333;strokeColor=#666666;" parent="Js8T8nFlmekBVsmb_q_9-1" vertex="1">
          <mxGeometry x="870" y="330" width="280" height="280" as="geometry" />
        </mxCell>
        <mxCell id="761dnnyQ54j-Cl0NHfQN-15604" value="9" style="rounded=0;whiteSpace=wrap;html=1;fillColor=#f5f5f5;fontColor=#333333;strokeColor=#666666;" parent="Js8T8nFlmekBVsmb_q_9-1" vertex="1">
          <mxGeometry x="710" y="360" width="90" height="90" as="geometry" />
        </mxCell>
        <mxCell id="761dnnyQ54j-Cl0NHfQN-15605" value="7" style="rounded=0;whiteSpace=wrap;html=1;fillColor=#f5f5f5;fontColor=#333333;strokeColor=#666666;" parent="Js8T8nFlmekBVsmb_q_9-1" vertex="1">
          <mxGeometry x="800" y="380" width="70" height="70" as="geometry" />
        </mxCell>
        <mxCell id="761dnnyQ54j-Cl0NHfQN-15606" value="2" style="rounded=0;whiteSpace=wrap;html=1;fillColor=#f5f5f5;fontColor=#333333;strokeColor=#666666;" parent="Js8T8nFlmekBVsmb_q_9-1" vertex="1">
          <mxGeometry x="800" y="360" width="20" height="20" as="geometry" />
        </mxCell>
        <mxCell id="761dnnyQ54j-Cl0NHfQN-15607" value="5" style="rounded=0;whiteSpace=wrap;html=1;fillColor=#f5f5f5;fontColor=#333333;strokeColor=#666666;" parent="Js8T8nFlmekBVsmb_q_9-1" vertex="1">
          <mxGeometry x="820" y="330" width="50" height="50" as="geometry" />
        </mxCell>
        <mxCell id="761dnnyQ54j-Cl0NHfQN-15608" value="46" style="rounded=0;whiteSpace=wrap;html=1;" parent="Js8T8nFlmekBVsmb_q_9-1" vertex="1">
          <mxGeometry width="460" height="460" as="geometry" />
        </mxCell>
        <mxCell id="761dnnyQ54j-Cl0NHfQN-15609" value="36" style="rounded=0;whiteSpace=wrap;html=1;fillColor=#f5f5f5;fontColor=#333333;strokeColor=#666666;" parent="Js8T8nFlmekBVsmb_q_9-1" vertex="1">
          <mxGeometry x="460" width="360" height="360" as="geometry" />
        </mxCell>
        <mxCell id="761dnnyQ54j-Cl0NHfQN-15610" value="33" style="rounded=0;whiteSpace=wrap;html=1;fillColor=#f5f5f5;fontColor=#333333;strokeColor=#666666;" parent="Js8T8nFlmekBVsmb_q_9-1" vertex="1">
          <mxGeometry x="820" width="330" height="330" as="geometry" />
        </mxCell>
        <mxCell id="Js8T8nFlmekBVsmb_q_9-2" value="" style="group;flipV=1;" vertex="1" connectable="0" parent="1">
          <mxGeometry x="60" y="1200" width="1150" height="690" as="geometry" />
        </mxCell>
        <mxCell id="761dnnyQ54j-Cl0NHfQN-5934" value="29" style="rounded=0;whiteSpace=wrap;html=1;" parent="Js8T8nFlmekBVsmb_q_9-2" vertex="1">
          <mxGeometry y="400" width="290" height="290" as="geometry" />
        </mxCell>
        <mxCell id="761dnnyQ54j-Cl0NHfQN-5935" value="16" style="rounded=0;whiteSpace=wrap;html=1;" parent="Js8T8nFlmekBVsmb_q_9-2" vertex="1">
          <mxGeometry x="290" y="530" width="160" height="160" as="geometry" />
        </mxCell>
        <mxCell id="761dnnyQ54j-Cl0NHfQN-5936" value="19" style="rounded=0;whiteSpace=wrap;html=1;" parent="Js8T8nFlmekBVsmb_q_9-2" vertex="1">
          <mxGeometry x="450" y="500" width="190" height="190" as="geometry" />
        </mxCell>
        <mxCell id="761dnnyQ54j-Cl0NHfQN-5937" value="13" style="rounded=0;whiteSpace=wrap;html=1;" parent="Js8T8nFlmekBVsmb_q_9-2" vertex="1">
          <mxGeometry x="290" y="400" width="130" height="130" as="geometry" />
        </mxCell>
        <mxCell id="761dnnyQ54j-Cl0NHfQN-5938" value="3" style="rounded=0;whiteSpace=wrap;html=1;" parent="Js8T8nFlmekBVsmb_q_9-2" vertex="1">
          <mxGeometry x="420" y="500" width="30" height="30" as="geometry" />
        </mxCell>
        <mxCell id="761dnnyQ54j-Cl0NHfQN-5939" value="21" style="rounded=0;whiteSpace=wrap;html=1;" parent="Js8T8nFlmekBVsmb_q_9-2" vertex="1">
          <mxGeometry x="640" y="480" width="210" height="210" as="geometry" />
        </mxCell>
        <mxCell id="761dnnyQ54j-Cl0NHfQN-5940" value="8" style="rounded=0;whiteSpace=wrap;html=1;" parent="Js8T8nFlmekBVsmb_q_9-2" vertex="1">
          <mxGeometry x="420" y="420" width="80" height="80" as="geometry" />
        </mxCell>
        <mxCell id="761dnnyQ54j-Cl0NHfQN-5941" value="14" style="rounded=0;whiteSpace=wrap;html=1;" parent="Js8T8nFlmekBVsmb_q_9-2" vertex="1">
          <mxGeometry x="500" y="360" width="140" height="140" as="geometry" />
        </mxCell>
        <mxCell id="761dnnyQ54j-Cl0NHfQN-5942" value="2" style="rounded=0;whiteSpace=wrap;html=1;" parent="Js8T8nFlmekBVsmb_q_9-2" vertex="1">
          <mxGeometry x="420" y="400" width="20" height="20" as="geometry" />
        </mxCell>
        <mxCell id="761dnnyQ54j-Cl0NHfQN-5943" value="6" style="rounded=0;whiteSpace=wrap;html=1;" parent="Js8T8nFlmekBVsmb_q_9-2" vertex="1">
          <mxGeometry x="440" y="360" width="60" height="60" as="geometry" />
        </mxCell>
        <mxCell id="761dnnyQ54j-Cl0NHfQN-5944" value="30" style="rounded=0;whiteSpace=wrap;html=1;" parent="Js8T8nFlmekBVsmb_q_9-2" vertex="1">
          <mxGeometry x="850" y="390" width="300" height="300" as="geometry" />
        </mxCell>
        <mxCell id="761dnnyQ54j-Cl0NHfQN-5945" value="12" style="rounded=0;whiteSpace=wrap;html=1;" parent="Js8T8nFlmekBVsmb_q_9-2" vertex="1">
          <mxGeometry x="640" y="360" width="120" height="120" as="geometry" />
        </mxCell>
        <mxCell id="761dnnyQ54j-Cl0NHfQN-5946" value="9" style="rounded=0;whiteSpace=wrap;html=1;" parent="Js8T8nFlmekBVsmb_q_9-2" vertex="1">
          <mxGeometry x="760" y="390" width="90" height="90" as="geometry" />
        </mxCell>
        <mxCell id="761dnnyQ54j-Cl0NHfQN-5947" value="39" style="rounded=0;whiteSpace=wrap;html=1;" parent="Js8T8nFlmekBVsmb_q_9-2" vertex="1">
          <mxGeometry x="760" width="390" height="390" as="geometry" />
        </mxCell>
        <mxCell id="761dnnyQ54j-Cl0NHfQN-5948" value="40" style="rounded=0;whiteSpace=wrap;html=1;" parent="Js8T8nFlmekBVsmb_q_9-2" vertex="1">
          <mxGeometry width="400" height="400" as="geometry" />
        </mxCell>
        <mxCell id="761dnnyQ54j-Cl0NHfQN-5949" value="4" style="rounded=0;whiteSpace=wrap;html=1;" parent="Js8T8nFlmekBVsmb_q_9-2" vertex="1">
          <mxGeometry x="400" y="360" width="40" height="40" as="geometry" />
        </mxCell>
        <mxCell id="761dnnyQ54j-Cl0NHfQN-5950" value="36" style="rounded=0;whiteSpace=wrap;html=1;" parent="Js8T8nFlmekBVsmb_q_9-2" vertex="1">
          <mxGeometry x="400" width="360" height="360" as="geometry" />
        </mxCell>
        <mxCell id="Js8T8nFlmekBVsmb_q_9-3" value="" style="group;flipV=1;" vertex="1" connectable="0" parent="1">
          <mxGeometry x="50" y="50" width="1150" height="940" as="geometry" />
        </mxCell>
        <mxCell id="761dnnyQ54j-Cl0NHfQN-434" value="34" style="rounded=0;whiteSpace=wrap;html=1;" parent="Js8T8nFlmekBVsmb_q_9-3" vertex="1">
          <mxGeometry y="600" width="340" height="340" as="geometry" />
        </mxCell>
        <mxCell id="761dnnyQ54j-Cl0NHfQN-435" value="19" style="rounded=0;whiteSpace=wrap;html=1;" parent="Js8T8nFlmekBVsmb_q_9-3" vertex="1">
          <mxGeometry x="340" y="750" width="190" height="190" as="geometry" />
        </mxCell>
        <mxCell id="761dnnyQ54j-Cl0NHfQN-436" value="23" style="rounded=0;whiteSpace=wrap;html=1;" parent="Js8T8nFlmekBVsmb_q_9-3" vertex="1">
          <mxGeometry x="530" y="710" width="230" height="230" as="geometry" />
        </mxCell>
        <mxCell id="761dnnyQ54j-Cl0NHfQN-437" value="15" style="rounded=0;whiteSpace=wrap;html=1;" parent="Js8T8nFlmekBVsmb_q_9-3" vertex="1">
          <mxGeometry x="340" y="600" width="150" height="150" as="geometry" />
        </mxCell>
        <mxCell id="761dnnyQ54j-Cl0NHfQN-438" value="4" style="rounded=0;whiteSpace=wrap;html=1;" parent="Js8T8nFlmekBVsmb_q_9-3" vertex="1">
          <mxGeometry x="490" y="710" width="40" height="40" as="geometry" />
        </mxCell>
        <mxCell id="761dnnyQ54j-Cl0NHfQN-439" value="39" style="rounded=0;whiteSpace=wrap;html=1;" parent="Js8T8nFlmekBVsmb_q_9-3" vertex="1">
          <mxGeometry x="760" y="550" width="390" height="390" as="geometry" />
        </mxCell>
        <mxCell id="761dnnyQ54j-Cl0NHfQN-440" value="11" style="rounded=0;whiteSpace=wrap;html=1;" parent="Js8T8nFlmekBVsmb_q_9-3" vertex="1">
          <mxGeometry x="490" y="600" width="110" height="110" as="geometry" />
        </mxCell>
        <mxCell id="761dnnyQ54j-Cl0NHfQN-441" value="16" style="rounded=0;whiteSpace=wrap;html=1;" parent="Js8T8nFlmekBVsmb_q_9-3" vertex="1">
          <mxGeometry x="600" y="550" width="160" height="160" as="geometry" />
        </mxCell>
        <mxCell id="761dnnyQ54j-Cl0NHfQN-442" value="60" style="rounded=0;whiteSpace=wrap;html=1;" parent="Js8T8nFlmekBVsmb_q_9-3" vertex="1">
          <mxGeometry width="600" height="600" as="geometry" />
        </mxCell>
        <mxCell id="761dnnyQ54j-Cl0NHfQN-443" value="55" style="rounded=0;whiteSpace=wrap;html=1;" parent="Js8T8nFlmekBVsmb_q_9-3" vertex="1">
          <mxGeometry x="600" width="550" height="550" as="geometry" />
        </mxCell>
        <mxCell id="Js8T8nFlmekBVsmb_q_9-16" value="" style="group;flipV=1;" vertex="1" connectable="0" parent="1">
          <mxGeometry x="1480" y="-360" width="1990" height="1780" as="geometry" />
        </mxCell>
        <mxCell id="Js8T8nFlmekBVsmb_q_9-5" value="76" style="rounded=0;whiteSpace=wrap;html=1;aspect=fixed;" vertex="1" parent="Js8T8nFlmekBVsmb_q_9-16">
          <mxGeometry y="1020" width="760" height="760" as="geometry" />
        </mxCell>
        <mxCell id="Js8T8nFlmekBVsmb_q_9-6" value="19" style="rounded=0;whiteSpace=wrap;html=1;aspect=fixed;" vertex="1" parent="Js8T8nFlmekBVsmb_q_9-16">
          <mxGeometry x="760" y="1170" width="190" height="190" as="geometry" />
        </mxCell>
        <mxCell id="Js8T8nFlmekBVsmb_q_9-7" value="23" style="rounded=0;whiteSpace=wrap;html=1;aspect=fixed;" vertex="1" parent="Js8T8nFlmekBVsmb_q_9-16">
          <mxGeometry x="950" y="1130" width="230" height="230" as="geometry" />
        </mxCell>
        <mxCell id="Js8T8nFlmekBVsmb_q_9-8" value="15" style="rounded=0;whiteSpace=wrap;html=1;aspect=fixed;" vertex="1" parent="Js8T8nFlmekBVsmb_q_9-16">
          <mxGeometry x="760" y="1020" width="150" height="150" as="geometry" />
        </mxCell>
        <mxCell id="Js8T8nFlmekBVsmb_q_9-9" value="4" style="rounded=0;whiteSpace=wrap;html=1;aspect=fixed;" vertex="1" parent="Js8T8nFlmekBVsmb_q_9-16">
          <mxGeometry x="910" y="1130" width="40" height="40" as="geometry" />
        </mxCell>
        <mxCell id="Js8T8nFlmekBVsmb_q_9-10" value="81" style="rounded=0;whiteSpace=wrap;html=1;aspect=fixed;" vertex="1" parent="Js8T8nFlmekBVsmb_q_9-16">
          <mxGeometry x="1180" y="970" width="810" height="810" as="geometry" />
        </mxCell>
        <mxCell id="Js8T8nFlmekBVsmb_q_9-11" value="11" style="rounded=0;whiteSpace=wrap;html=1;aspect=fixed;" vertex="1" parent="Js8T8nFlmekBVsmb_q_9-16">
          <mxGeometry x="910" y="1020" width="110" height="110" as="geometry" />
        </mxCell>
        <mxCell id="Js8T8nFlmekBVsmb_q_9-12" value="16" style="rounded=0;whiteSpace=wrap;html=1;aspect=fixed;" vertex="1" parent="Js8T8nFlmekBVsmb_q_9-16">
          <mxGeometry x="1020" y="970" width="160" height="160" as="geometry" />
        </mxCell>
        <mxCell id="Js8T8nFlmekBVsmb_q_9-13" value="102" style="rounded=0;whiteSpace=wrap;html=1;aspect=fixed;" vertex="1" parent="Js8T8nFlmekBVsmb_q_9-16">
          <mxGeometry width="1020" height="1020" as="geometry" />
        </mxCell>
        <mxCell id="Js8T8nFlmekBVsmb_q_9-14" value="97" style="rounded=0;whiteSpace=wrap;html=1;aspect=fixed;" vertex="1" parent="Js8T8nFlmekBVsmb_q_9-16">
          <mxGeometry x="1020" width="970" height="970" as="geometry" />
        </mxCell>
        <mxCell id="Js8T8nFlmekBVsmb_q_9-15" value="42" style="rounded=0;whiteSpace=wrap;html=1;aspect=fixed;" vertex="1" parent="Js8T8nFlmekBVsmb_q_9-16">
          <mxGeometry x="760" y="1360" width="420" height="420" as="geometry" />
        </mxCell>
        <mxCell id="Js8T8nFlmekBVsmb_q_9-17" value="" style="group;flipV=1;" vertex="1" connectable="0" parent="1">
          <mxGeometry x="60" y="-1230" width="1150" height="1120" as="geometry" />
        </mxCell>
        <mxCell id="761dnnyQ54j-Cl0NHfQN-15948" value="55" style="rounded=0;whiteSpace=wrap;html=1;" parent="Js8T8nFlmekBVsmb_q_9-17" vertex="1">
          <mxGeometry y="570" width="550" height="550" as="geometry" />
        </mxCell>
        <mxCell id="761dnnyQ54j-Cl0NHfQN-15949" value="31" style="rounded=0;whiteSpace=wrap;html=1;" parent="Js8T8nFlmekBVsmb_q_9-17" vertex="1">
          <mxGeometry x="550" y="810" width="310" height="310" as="geometry" />
        </mxCell>
        <mxCell id="761dnnyQ54j-Cl0NHfQN-15950" value="29" style="rounded=0;whiteSpace=wrap;html=1;" parent="Js8T8nFlmekBVsmb_q_9-17" vertex="1">
          <mxGeometry x="860" y="830" width="290" height="290" as="geometry" />
        </mxCell>
        <mxCell id="761dnnyQ54j-Cl0NHfQN-15951" value="2" style="rounded=0;whiteSpace=wrap;html=1;" parent="Js8T8nFlmekBVsmb_q_9-17" vertex="1">
          <mxGeometry x="860" y="810" width="20" height="20" as="geometry" />
        </mxCell>
        <mxCell id="761dnnyQ54j-Cl0NHfQN-15952" value="11" style="rounded=0;whiteSpace=wrap;html=1;" parent="Js8T8nFlmekBVsmb_q_9-17" vertex="1">
          <mxGeometry x="880" y="720" width="110" height="110" as="geometry" />
        </mxCell>
        <mxCell id="761dnnyQ54j-Cl0NHfQN-15953" value="16" style="rounded=0;whiteSpace=wrap;html=1;" parent="Js8T8nFlmekBVsmb_q_9-17" vertex="1">
          <mxGeometry x="990" y="670" width="160" height="160" as="geometry" />
        </mxCell>
        <mxCell id="761dnnyQ54j-Cl0NHfQN-15954" value="24" style="rounded=0;whiteSpace=wrap;html=1;" parent="Js8T8nFlmekBVsmb_q_9-17" vertex="1">
          <mxGeometry x="550" y="570" width="240" height="240" as="geometry" />
        </mxCell>
        <mxCell id="761dnnyQ54j-Cl0NHfQN-15955" value="9" style="rounded=0;whiteSpace=wrap;html=1;" parent="Js8T8nFlmekBVsmb_q_9-17" vertex="1">
          <mxGeometry x="790" y="720" width="90" height="90" as="geometry" />
        </mxCell>
        <mxCell id="761dnnyQ54j-Cl0NHfQN-15956" value="15" style="rounded=0;whiteSpace=wrap;html=1;" parent="Js8T8nFlmekBVsmb_q_9-17" vertex="1">
          <mxGeometry x="790" y="570" width="150" height="150" as="geometry" />
        </mxCell>
        <mxCell id="761dnnyQ54j-Cl0NHfQN-15957" value="5" style="rounded=0;whiteSpace=wrap;html=1;" parent="Js8T8nFlmekBVsmb_q_9-17" vertex="1">
          <mxGeometry x="940" y="670" width="50" height="50" as="geometry" />
        </mxCell>
        <mxCell id="761dnnyQ54j-Cl0NHfQN-15958" value="21" style="rounded=0;whiteSpace=wrap;html=1;" parent="Js8T8nFlmekBVsmb_q_9-17" vertex="1">
          <mxGeometry x="940" y="460" width="210" height="210" as="geometry" />
        </mxCell>
        <mxCell id="761dnnyQ54j-Cl0NHfQN-15959" value="57" style="rounded=0;whiteSpace=wrap;html=1;" parent="Js8T8nFlmekBVsmb_q_9-17" vertex="1">
          <mxGeometry width="570" height="570" as="geometry" />
        </mxCell>
        <mxCell id="761dnnyQ54j-Cl0NHfQN-15960" value="25" style="rounded=0;whiteSpace=wrap;html=1;" parent="Js8T8nFlmekBVsmb_q_9-17" vertex="1">
          <mxGeometry x="570" y="320" width="250" height="250" as="geometry" />
        </mxCell>
        <mxCell id="761dnnyQ54j-Cl0NHfQN-15961" value="12" style="rounded=0;whiteSpace=wrap;html=1;" parent="Js8T8nFlmekBVsmb_q_9-17" vertex="1">
          <mxGeometry x="820" y="450" width="120" height="120" as="geometry" />
        </mxCell>
        <mxCell id="761dnnyQ54j-Cl0NHfQN-15962" value="1" style="rounded=0;whiteSpace=wrap;html=1;" parent="Js8T8nFlmekBVsmb_q_9-17" vertex="1">
          <mxGeometry x="940" y="450" width="10" height="10" as="geometry" />
        </mxCell>
        <mxCell id="761dnnyQ54j-Cl0NHfQN-15963" value="20" style="rounded=0;whiteSpace=wrap;html=1;" parent="Js8T8nFlmekBVsmb_q_9-17" vertex="1">
          <mxGeometry x="950" y="260" width="200" height="200" as="geometry" />
        </mxCell>
        <mxCell id="761dnnyQ54j-Cl0NHfQN-15964" value="13" style="rounded=0;whiteSpace=wrap;html=1;" parent="Js8T8nFlmekBVsmb_q_9-17" vertex="1">
          <mxGeometry x="820" y="320" width="130" height="130" as="geometry" />
        </mxCell>
        <mxCell id="761dnnyQ54j-Cl0NHfQN-15965" value="32" style="rounded=0;whiteSpace=wrap;html=1;" parent="Js8T8nFlmekBVsmb_q_9-17" vertex="1">
          <mxGeometry x="570" width="320" height="320" as="geometry" />
        </mxCell>
        <mxCell id="761dnnyQ54j-Cl0NHfQN-15966" value="6" style="rounded=0;whiteSpace=wrap;html=1;" parent="Js8T8nFlmekBVsmb_q_9-17" vertex="1">
          <mxGeometry x="890" y="260" width="60" height="60" as="geometry" />
        </mxCell>
        <mxCell id="761dnnyQ54j-Cl0NHfQN-15967" value="26" style="rounded=0;whiteSpace=wrap;html=1;" parent="Js8T8nFlmekBVsmb_q_9-17" vertex="1">
          <mxGeometry x="890" width="260" height="260" as="geometry" />
        </mxCell>
      </root>
    </mxGraphModel>
  </diagram>
</mxfile>
